<svg width="366" height="101" viewBox="0 0 366 101" fill="none" xmlns="http://www.w3.org/2000/svg">
<path d="M122.784 45V8.648H108.448V0.199997H147.488V8.648H133.152V45H122.784ZM165.246 45.512C161.577 45.512 158.313 44.744 155.454 43.208C152.638 41.672 150.398 39.5813 148.734 36.936C147.113 34.248 146.302 31.1973 146.302 27.784C146.302 24.328 147.113 21.2773 148.734 18.632C150.398 15.944 152.638 13.8533 155.454 12.36C158.313 10.824 161.577 10.056 165.246 10.056C168.873 10.056 172.116 10.824 174.974 12.36C177.833 13.8533 180.073 15.9227 181.694 18.568C183.316 21.2133 184.126 24.2853 184.126 27.784C184.126 31.1973 183.316 34.248 181.694 36.936C180.073 39.5813 177.833 41.672 174.974 43.208C172.116 44.744 168.873 45.512 165.246 45.512ZM165.246 37.32C166.91 37.32 168.404 36.936 169.726 36.168C171.049 35.4 172.094 34.312 172.862 32.904C173.63 31.4533 174.014 29.7467 174.014 27.784C174.014 25.7787 173.63 24.072 172.862 22.664C172.094 21.256 171.049 20.168 169.726 19.4C168.404 18.632 166.91 18.248 165.246 18.248C163.582 18.248 162.089 18.632 160.766 19.4C159.444 20.168 158.377 21.256 157.566 22.664C156.798 24.072 156.414 25.7787 156.414 27.784C156.414 29.7467 156.798 31.4533 157.566 32.904C158.377 34.312 159.444 35.4 160.766 36.168C162.089 36.936 163.582 37.32 165.246 37.32Z" fill="black"/>
<path d="M191.504 45V0.199997H211.856C216.72 0.199997 221.008 1.13866 224.72 3.016C228.432 4.85066 231.333 7.432 233.424 10.76C235.515 14.088 236.56 18.0347 236.56 22.6C236.56 27.1227 235.515 31.0693 233.424 34.44C231.333 37.768 228.432 40.3707 224.72 42.248C221.008 44.0827 216.72 45 211.856 45H191.504ZM201.872 36.488H211.344C214.331 36.488 216.912 35.9333 219.088 34.824C221.307 33.672 223.013 32.0507 224.208 29.96C225.445 27.8693 226.064 25.416 226.064 22.6C226.064 19.7413 225.445 17.288 224.208 15.24C223.013 13.1493 221.307 11.5493 219.088 10.44C216.912 9.288 214.331 8.712 211.344 8.712H201.872V36.488ZM260.059 45.512C256.39 45.512 253.126 44.744 250.267 43.208C247.451 41.672 245.211 39.5813 243.547 36.936C241.926 34.248 241.115 31.1973 241.115 27.784C241.115 24.328 241.926 21.2773 243.547 18.632C245.211 15.944 247.451 13.8533 250.267 12.36C253.126 10.824 256.39 10.056 260.059 10.056C263.686 10.056 266.928 10.824 269.787 12.36C272.646 13.8533 274.886 15.9227 276.507 18.568C278.128 21.2133 278.939 24.2853 278.939 27.784C278.939 31.1973 278.128 34.248 276.507 36.936C274.886 39.5813 272.646 41.672 269.787 43.208C266.928 44.744 263.686 45.512 260.059 45.512ZM260.059 37.32C261.723 37.32 263.216 36.936 264.539 36.168C265.862 35.4 266.907 34.312 267.675 32.904C268.443 31.4533 268.827 29.7467 268.827 27.784C268.827 25.7787 268.443 24.072 267.675 22.664C266.907 21.256 265.862 20.168 264.539 19.4C263.216 18.632 261.723 18.248 260.059 18.248C258.395 18.248 256.902 18.632 255.579 19.4C254.256 20.168 253.19 21.256 252.379 22.664C251.611 24.072 251.227 25.7787 251.227 27.784C251.227 29.7467 251.611 31.4533 252.379 32.904C253.19 34.312 254.256 35.4 255.579 36.168C256.902 36.936 258.395 37.32 260.059 37.32Z" fill="black" fill-opacity="0.2"/>
<path d="M68.2816 100.352V63.9996H53.9456V55.5516H92.9856V63.9996H78.6496V100.352H68.2816ZM110.744 100.864C107.075 100.864 103.811 100.096 100.952 98.5596C98.1361 97.0236 95.8961 94.9329 94.2321 92.2876C92.6108 89.5996 91.8001 86.5489 91.8001 83.1356C91.8001 79.6796 92.6108 76.6289 94.2321 73.9836C95.8961 71.2956 98.1361 69.2049 100.952 67.7116C103.811 66.1756 107.075 65.4076 110.744 65.4076C114.371 65.4076 117.613 66.1756 120.472 67.7116C123.331 69.2049 125.571 71.2742 127.192 73.9196C128.813 76.5649 129.624 79.6369 129.624 83.1356C129.624 86.5489 128.813 89.5996 127.192 92.2876C125.571 94.9329 123.331 97.0236 120.472 98.5596C117.613 100.096 114.371 100.864 110.744 100.864ZM110.744 92.6716C112.408 92.6716 113.901 92.2876 115.224 91.5196C116.547 90.7516 117.592 89.6636 118.36 88.2556C119.128 86.8049 119.512 85.0982 119.512 83.1356C119.512 81.1302 119.128 79.4236 118.36 78.0156C117.592 76.6076 116.547 75.5196 115.224 74.7516C113.901 73.9836 112.408 73.5996 110.744 73.5996C109.08 73.5996 107.587 73.9836 106.264 74.7516C104.941 75.5196 103.875 76.6076 103.064 78.0156C102.296 79.4236 101.912 81.1302 101.912 83.1356C101.912 85.0982 102.296 86.8049 103.064 88.2556C103.875 89.6636 104.941 90.7516 106.264 91.5196C107.587 92.2876 109.08 92.6716 110.744 92.6716Z" fill="black" fill-opacity="0.2"/>
<path d="M137.002 100.352V55.5516H157.354C162.218 55.5516 166.506 56.4902 170.218 58.3676C173.93 60.2022 176.831 62.7836 178.922 66.1116C181.012 69.4396 182.058 73.3862 182.058 77.9516C182.058 82.4742 181.012 86.4209 178.922 89.7916C176.831 93.1196 173.93 95.7222 170.218 97.5996C166.506 99.4342 162.218 100.352 157.354 100.352H137.002ZM147.37 91.8396H156.842C159.828 91.8396 162.41 91.2849 164.586 90.1756C166.804 89.0236 168.511 87.4022 169.706 85.3116C170.943 83.2209 171.562 80.7676 171.562 77.9516C171.562 75.0929 170.943 72.6396 169.706 70.5916C168.511 68.5009 166.804 66.9009 164.586 65.7916C162.41 64.6396 159.828 64.0636 156.842 64.0636H147.37V91.8396ZM205.557 100.864C201.887 100.864 198.623 100.096 195.765 98.5596C192.949 97.0236 190.709 94.9329 189.045 92.2876C187.423 89.5996 186.613 86.5489 186.613 83.1356C186.613 79.6796 187.423 76.6289 189.045 73.9836C190.709 71.2956 192.949 69.2049 195.765 67.7116C198.623 66.1756 201.887 65.4076 205.557 65.4076C209.183 65.4076 212.426 66.1756 215.285 67.7116C218.143 69.2049 220.383 71.2742 222.005 73.9196C223.626 76.5649 224.437 79.6369 224.437 83.1356C224.437 86.5489 223.626 89.5996 222.005 92.2876C220.383 94.9329 218.143 97.0236 215.285 98.5596C212.426 100.096 209.183 100.864 205.557 100.864ZM205.557 92.6716C207.221 92.6716 208.714 92.2876 210.037 91.5196C211.359 90.7516 212.405 89.6636 213.173 88.2556C213.941 86.8049 214.325 85.0982 214.325 83.1356C214.325 81.1302 213.941 79.4236 213.173 78.0156C212.405 76.6076 211.359 75.5196 210.037 74.7516C208.714 73.9836 207.221 73.5996 205.557 73.5996C203.893 73.5996 202.399 73.9836 201.077 74.7516C199.754 75.5196 198.687 76.6076 197.877 78.0156C197.109 79.4236 196.725 81.1302 196.725 83.1356C196.725 85.0982 197.109 86.8049 197.877 88.2556C198.687 89.6636 199.754 90.7516 201.077 91.5196C202.399 92.2876 203.893 92.6716 205.557 92.6716Z" fill="black"/>
</svg>
