<svg width="366" height="102" viewBox="0 0 366 102" fill="none" xmlns="http://www.w3.org/2000/svg">
<path d="M122.617 45.375V9.023H108.281V0.574997H147.321V9.023H132.985V45.375H122.617ZM165.079 45.887C161.41 45.887 158.146 45.119 155.287 43.583C152.471 42.047 150.231 39.9563 148.567 37.311C146.946 34.623 146.135 31.5723 146.135 28.159C146.135 24.703 146.946 21.6523 148.567 19.007C150.231 16.319 152.471 14.2283 155.287 12.735C158.146 11.199 161.41 10.431 165.079 10.431C168.706 10.431 171.949 11.199 174.807 12.735C177.666 14.2283 179.906 16.2977 181.527 18.943C183.149 21.5883 183.959 24.6603 183.959 28.159C183.959 31.5723 183.149 34.623 181.527 37.311C179.906 39.9563 177.666 42.047 174.807 43.583C171.949 45.119 168.706 45.887 165.079 45.887ZM165.079 37.695C166.743 37.695 168.237 37.311 169.559 36.543C170.882 35.775 171.927 34.687 172.695 33.279C173.463 31.8283 173.847 30.1217 173.847 28.159C173.847 26.1537 173.463 24.447 172.695 23.039C171.927 21.631 170.882 20.543 169.559 19.775C168.237 19.007 166.743 18.623 165.079 18.623C163.415 18.623 161.922 19.007 160.599 19.775C159.277 20.543 158.21 21.631 157.399 23.039C156.631 24.447 156.247 26.1537 156.247 28.159C156.247 30.1217 156.631 31.8283 157.399 33.279C158.21 34.687 159.277 35.775 160.599 36.543C161.922 37.311 163.415 37.695 165.079 37.695Z" fill="white"/>
<path d="M191.337 45.375V0.574997H211.689C216.553 0.574997 220.841 1.51366 224.553 3.391C228.265 5.22566 231.166 7.807 233.257 11.135C235.348 14.463 236.393 18.4097 236.393 22.975C236.393 27.4977 235.348 31.4443 233.257 34.815C231.166 38.143 228.265 40.7457 224.553 42.623C220.841 44.4577 216.553 45.375 211.689 45.375H191.337ZM201.705 36.863H211.177C214.164 36.863 216.745 36.3083 218.921 35.199C221.14 34.047 222.846 32.4257 224.041 30.335C225.278 28.2443 225.897 25.791 225.897 22.975C225.897 20.1163 225.278 17.663 224.041 15.615C222.846 13.5243 221.14 11.9243 218.921 10.815C216.745 9.663 214.164 9.087 211.177 9.087H201.705V36.863ZM259.892 45.887C256.223 45.887 252.959 45.119 250.1 43.583C247.284 42.047 245.044 39.9563 243.38 37.311C241.759 34.623 240.948 31.5723 240.948 28.159C240.948 24.703 241.759 21.6523 243.38 19.007C245.044 16.319 247.284 14.2283 250.1 12.735C252.959 11.199 256.223 10.431 259.892 10.431C263.519 10.431 266.761 11.199 269.62 12.735C272.479 14.2283 274.719 16.2977 276.34 18.943C277.961 21.5883 278.772 24.6603 278.772 28.159C278.772 31.5723 277.961 34.623 276.34 37.311C274.719 39.9563 272.479 42.047 269.62 43.583C266.761 45.119 263.519 45.887 259.892 45.887ZM259.892 37.695C261.556 37.695 263.049 37.311 264.372 36.543C265.695 35.775 266.74 34.687 267.508 33.279C268.276 31.8283 268.66 30.1217 268.66 28.159C268.66 26.1537 268.276 24.447 267.508 23.039C266.74 21.631 265.695 20.543 264.372 19.775C263.049 19.007 261.556 18.623 259.892 18.623C258.228 18.623 256.735 19.007 255.412 19.775C254.089 20.543 253.023 21.631 252.212 23.039C251.444 24.447 251.06 26.1537 251.06 28.159C251.06 30.1217 251.444 31.8283 252.212 33.279C253.023 34.687 254.089 35.775 255.412 36.543C256.735 37.311 258.228 37.695 259.892 37.695Z" fill="white" fill-opacity="0.2"/>
<path d="M68.1146 100.727V64.3746H53.7786V55.9266H92.8186V64.3746H78.4826V100.727H68.1146ZM110.577 101.239C106.908 101.239 103.644 100.471 100.785 98.9346C97.9691 97.3986 95.7291 95.3079 94.0651 92.6626C92.4438 89.9746 91.6331 86.9239 91.6331 83.5106C91.6331 80.0546 92.4438 77.0039 94.0651 74.3586C95.7291 71.6706 97.9691 69.5799 100.785 68.0866C103.644 66.5506 106.908 65.7826 110.577 65.7826C114.204 65.7826 117.446 66.5506 120.305 68.0866C123.164 69.5799 125.404 71.6492 127.025 74.2946C128.646 76.9399 129.457 80.0119 129.457 83.5106C129.457 86.9239 128.646 89.9746 127.025 92.6626C125.404 95.3079 123.164 97.3986 120.305 98.9346C117.446 100.471 114.204 101.239 110.577 101.239ZM110.577 93.0466C112.241 93.0466 113.734 92.6626 115.057 91.8946C116.38 91.1266 117.425 90.0386 118.193 88.6306C118.961 87.1799 119.345 85.4732 119.345 83.5106C119.345 81.5052 118.961 79.7986 118.193 78.3906C117.425 76.9826 116.38 75.8946 115.057 75.1266C113.734 74.3586 112.241 73.9746 110.577 73.9746C108.913 73.9746 107.42 74.3586 106.097 75.1266C104.774 75.8946 103.708 76.9826 102.897 78.3906C102.129 79.7986 101.745 81.5052 101.745 83.5106C101.745 85.4732 102.129 87.1799 102.897 88.6306C103.708 90.0386 104.774 91.1266 106.097 91.8946C107.42 92.6626 108.913 93.0466 110.577 93.0466Z" fill="white" fill-opacity="0.2"/>
<path d="M136.835 100.727V55.9266H157.187C162.051 55.9266 166.339 56.8652 170.051 58.7426C173.763 60.5772 176.664 63.1586 178.755 66.4866C180.845 69.8146 181.891 73.7612 181.891 78.3266C181.891 82.8492 180.845 86.7959 178.755 90.1666C176.664 93.4946 173.763 96.0972 170.051 97.9746C166.339 99.8092 162.051 100.727 157.187 100.727H136.835ZM147.203 92.2146H156.675C159.661 92.2146 162.243 91.6599 164.419 90.5506C166.637 89.3986 168.344 87.7772 169.539 85.6866C170.776 83.5959 171.395 81.1426 171.395 78.3266C171.395 75.4679 170.776 73.0146 169.539 70.9666C168.344 68.8759 166.637 67.2759 164.419 66.1666C162.243 65.0146 159.661 64.4386 156.675 64.4386H147.203V92.2146ZM205.39 101.239C201.72 101.239 198.456 100.471 195.598 98.9346C192.782 97.3986 190.542 95.3079 188.878 92.6626C187.256 89.9746 186.446 86.9239 186.446 83.5106C186.446 80.0546 187.256 77.0039 188.878 74.3586C190.542 71.6706 192.782 69.5799 195.598 68.0866C198.456 66.5506 201.72 65.7826 205.39 65.7826C209.016 65.7826 212.259 66.5506 215.118 68.0866C217.976 69.5799 220.216 71.6492 221.838 74.2946C223.459 76.9399 224.27 80.0119 224.27 83.5106C224.27 86.9239 223.459 89.9746 221.838 92.6626C220.216 95.3079 217.976 97.3986 215.118 98.9346C212.259 100.471 209.016 101.239 205.39 101.239ZM205.39 93.0466C207.054 93.0466 208.547 92.6626 209.87 91.8946C211.192 91.1266 212.238 90.0386 213.006 88.6306C213.774 87.1799 214.158 85.4732 214.158 83.5106C214.158 81.5052 213.774 79.7986 213.006 78.3906C212.238 76.9826 211.192 75.8946 209.87 75.1266C208.547 74.3586 207.054 73.9746 205.39 73.9746C203.726 73.9746 202.232 74.3586 200.91 75.1266C199.587 75.8946 198.52 76.9826 197.71 78.3906C196.942 79.7986 196.558 81.5052 196.558 83.5106C196.558 85.4732 196.942 87.1799 197.71 88.6306C198.52 90.0386 199.587 91.1266 200.91 91.8946C202.232 92.6626 203.726 93.0466 205.39 93.0466Z" fill="white"/>
</svg>
